<?xml version="1.0" encoding="UTF-8" standalone="no"?>
<!-- Created with Inkscape (http://www.inkscape.org/) -->

<svg
   xmlns:dc="http://purl.org/dc/elements/1.1/"
   xmlns:cc="http://creativecommons.org/ns#"
   xmlns:rdf="http://www.w3.org/1999/02/22-rdf-syntax-ns#"
   xmlns:svg="http://www.w3.org/2000/svg"
   xmlns="http://www.w3.org/2000/svg"
   xmlns:sodipodi="http://sodipodi.sourceforge.net/DTD/sodipodi-0.dtd"
   xmlns:inkscape="http://www.inkscape.org/namespaces/inkscape"
   width="439.28195"
   height="388.23477"
   id="svg4201"
   version="1.1"
   inkscape:version="0.48.5 r10040"
   sodipodi:docname="logo.svg">
  <defs
     id="defs3" />
  <sodipodi:namedview
     inkscape:document-units="mm"
     id="base"
     pagecolor="#ffffff"
     bordercolor="#666666"
     borderopacity="1.0"
     inkscape:pageopacity="0.0"
     inkscape:pageshadow="2"
     inkscape:zoom="0.35"
     inkscape:cx="104.69863"
     inkscape:cy="-22.908942"
     inkscape:current-layer="layer1"
     showgrid="false"
     inkscape:window-width="1920"
     inkscape:window-height="1017"
     inkscape:window-x="-8"
     inkscape:window-y="-8"
     inkscape:window-maximized="1"
     units="mm"
     fit-margin-top="0"
     fit-margin-left="0"
     fit-margin-right="0"
     fit-margin-bottom="0" />
  <metadata
     id="metadata4">
    <rdf:RDF>
      <cc:Work
         rdf:about="">
        <dc:format>image/svg+xml</dc:format>
        <dc:type
           rdf:resource="http://purl.org/dc/dcmitype/StillImage" />
        <dc:title></dc:title>
      </cc:Work>
    </rdf:RDF>
  </metadata>
  <g
     inkscape:label="Layer 1"
     inkscape:groupmode="layer"
     id="layer1"
     transform="translate(-94.446261,-121.21847)">
    <g
       id="g4076"
       transform="matrix(0.41668142,0.24287201,-0.24179061,0.418545,265.70231,-819.98157)"
       style="fill:#000000;stroke:#000000;stroke-width:7.03041124;stroke-miterlimit:4;stroke-opacity:1;stroke-dasharray:none">
      <path
         inkscape:connector-curvature="0"
         d="m 1218.682,2047.5577 c -1.3938,1.078 -2.8244,2.0999 -4.3011,3.0639 -3.8911,2.4035 -7.9344,4.5495 -11.9624,6.712 -6.099,3.285 5.6269,-2.1307 -0.4653,1.167 -7.4278,3.8825 -14.5841,8.2424 -21.6359,12.7633 -7.9725,5.1042 -15.4752,10.8799 -22.8261,16.8303 -7.7291,6.2639 -15.0179,13.0267 -22.055,20.0512 -6.9347,7.0087 -13.4831,14.3813 -19.9221,21.8433 -6.0118,6.9885 -11.6695,14.2669 -17.176,21.6565 -5.121,6.8836 -9.9014,14.0089 -14.5584,21.2112 -4.6033,7.129 -9.0041,14.3845 -13.3396,21.6784 -4.2208,7.1274 -8.2981,14.3381 -12.3518,21.5614 -3.4855,6.1323 -6.8428,12.3359 -10.1807,18.5492 -2.4297,4.7058 -5.086,9.2839 -8.3579,13.4542 -1.8989,2.2554 -4.0943,4.3058 -7.1585,4.4309 -2.6098,-0.3815 -3.5398,-2.6685 -4.233,-4.9211 -0.9565,-4.1735 -0.4623,-8.4509 0.1046,-12.6389 1.0207,-6.4467 3.0688,-12.658 5.2442,-18.7906 2.6183,-7.2255 5.8286,-14.2103 9.1924,-21.113 3.6396,-7.3914 7.6307,-14.6001 11.7311,-21.7432 4.0103,-6.9148 8.133,-13.7628 12.3444,-20.5566 4.0887,-6.6755 8.3544,-13.2386 12.6658,-19.7715 4.1005,-6.122 8.2909,-12.1838 12.5118,-18.2233 3.3092,-4.6602 6.6548,-9.2928 9.7434,-14.1035 1.6617,-2.7119 3.2198,-5.5344 3.6061,-8.7258 -0.071,-2.7971 -1.7225,-3.4116 -4.1806,-3.8429 -4.1816,-0.3276 -8.2857,0.7075 -12.2975,1.7537 -6.2479,1.7826 -12.2935,4.1827 -18.286,6.6744 -7.8819,3.2897 -15.5357,7.0875 -23.144,10.9586 -10.1732,5.1996 -20.1534,10.7631 -30.1391,16.3109 -12.4237,6.9469 -24.86559,13.8611 -37.3289,20.7368 -12.51203,6.8627 -25.06133,13.6571 -37.6126,20.4477 -10.95291,5.9515 -22.01403,11.6989 -33.15006,17.2992 -8.47043,4.2273 -17.04597,8.2453 -25.8183,11.8067 -4.58383,1.6287 -9.34686,3.8553 -14.32305,3.2849 -0.32328,-0.1439 -0.68413,-0.2227 -0.96974,-0.4316 -2.13383,-1.5609 0.58119,-5.1987 1.44843,-6.6119 4.25638,-6.0452 9.59825,-11.2264 14.84591,-16.3974 8.26782,-8.0245 16.96273,-15.5907 25.70016,-23.095 10.37374,-8.8995 20.9229,-17.5904 31.47293,-26.2791 10.57869,-8.7795 21.31113,-17.3693 32.08876,-25.9024 9.24184,-7.3084 18.51804,-14.5731 27.83006,-21.7923 7.2771,-5.6085 14.5891,-11.1718 21.9052,-16.7294 4.7696,-3.614 9.6044,-7.1665 13.8646,-11.3839 1.9294,-2.1049 3.28,-4.031 2.8013,-6.9401 -0.9861,-2.6837 -3.5438,-4.1466 -5.8805,-5.531 -4.2413,-2.3567 -8.7385,-4.1937 -13.2434,-5.9737 -6.5226,-2.518 -13.1461,-4.7618 -19.7337,-7.1014 -7.68847,-2.6725 -15.33371,-5.4656 -22.95687,-8.3185 -7.33613,-2.7521 -14.59992,-5.6909 -21.87422,-8.6014 -6.59297,-2.6721 -13.20533,-5.2967 -19.87138,-7.7813 -6.17578,-2.2809 -12.44335,-4.2976 -18.72346,-6.2678 -4.96097,-1.5587 -9.93246,-3.101 -14.73499,-5.1047 -0.79416,-0.3885 -5.25973,-2.0924 -3.76209,-3.7771 0.24484,-0.2754 0.61973,-0.3987 0.92977,-0.598 0.5245,-0.1876 1.03655,-0.4147 1.57354,-0.5631 2.78354,-0.7689 5.72802,-0.9826 8.59033,-1.2242 3.51535,-0.2968 5.05702,-0.3662 8.67321,-0.5844 13.27731,-0.7311 26.57466,-0.987 39.86862,-1.194 17.41762,-0.1508 34.83613,-0.1911 52.25434,-0.2273 18.7278,-0.064 37.4556,-0.098 56.1835,-0.1163 18.3181,-0.053 36.6353,0.129 54.952,0.3416 15.6367,0.2158 31.273,0.4608 46.9097,0.6867 8.313,0.1302 16.6269,0.1951 24.9408,0.2528 0.4205,0.01 0.2722,5.9574 -0.1484,5.947 l 0,0 c -8.3467,0.4067 -16.6947,0.7865 -25.0469,1.0646 -15.6784,0.5069 -31.3597,0.9241 -47.0458,1.0942 -18.3235,0.1856 -36.6473,0.301 -54.9717,0.3334 -18.7359,0 -37.4721,-0.031 -56.2074,-0.2156 -17.41693,-0.1884 -34.83392,-0.4734 -52.24169,-1.0947 -13.23528,-0.5116 -26.4716,-1.0741 -39.67724,-2.1246 -6.12966,-0.4613 -12.25928,-0.9218 -18.38223,-1.4623 -0.0314,0 -1.00997,-0.011 -0.97488,0.034 0.53083,0.6706 3.54125,0.9834 4.2577,1.3981 4.98465,1.3631 9.97835,2.6918 14.96627,4.0428 6.39588,1.7977 12.75662,3.7201 19.00417,5.9884 6.70452,2.4346 13.3604,4.9957 20.02452,7.5383 7.30375,2.7805 14.6232,5.5191 21.95776,8.2178 7.62851,2.8311 15.25389,5.6718 22.85022,8.5885 6.5809,2.5246 13.1649,5.0656 19.5563,8.0456 4.4732,2.1467 8.9614,4.3266 13.0626,7.1401 2.4572,1.8144 4.9633,3.7374 6.0391,6.713 0.8142,3.6694 -0.4329,6.1885 -2.4708,9.2106 -3.8532,4.915 -8.4487,9.1356 -13.2043,13.1681 -7.0343,6.0087 -14.1611,11.908 -21.2234,17.8837 -9.05219,7.6394 -18.07803,15.3099 -27.18965,22.8786 -10.58995,8.7846 -21.16711,17.585 -31.83887,26.2705 -10.56271,8.5935 -21.18027,17.1189 -31.80005,25.6416 -8.85348,7.1266 -17.7085,14.2517 -26.44311,21.5241 -5.45187,4.5296 -10.95269,9.0213 -16.04496,13.9591 -1.49633,1.5491 -1.09745,1.0577 -2.28807,2.5457 -0.62838,0.7853 -1.10908,1.7835 0.39981,1.5911 4.63931,-1.1279 8.77116,-3.7452 13.04444,-5.7736 8.3752,-4.4129 16.7095,-8.9026 24.98655,-13.4971 10.90828,-6.0506 21.78042,-12.1657 32.62467,-18.3305 12.43268,-7.0786 24.88438,-14.1255 37.43693,-20.9901 12.50426,-6.7813 25.05271,-13.4847 37.78131,-19.8378 10.2209,-5.0886 20.4879,-10.0876 30.8879,-14.8019 7.8338,-3.5035 15.7018,-6.9413 23.746,-9.9397 6.1943,-2.2468 12.4398,-4.4323 18.9202,-5.7074 4.2941,-0.7614 8.7079,-1.4627 13.0316,-0.4931 2.7658,0.8835 4.6108,1.9798 5.1143,5.0401 0.097,3.7834 -1.4035,7.29 -3.0732,10.6195 -2.7607,5.1502 -5.8378,10.1157 -9.0584,14.9907 -4.0452,6.1727 -8.1272,12.3211 -12.1822,18.4874 -4.2525,6.5327 -8.5292,13.0513 -12.5749,19.7152 -4.1249,6.8189 -8.2015,13.6677 -12.1319,20.6011 -4.0137,7.1105 -7.9674,14.2558 -11.6713,21.534 -3.3998,6.7166 -6.6596,13.5081 -9.4639,20.4986 -2.144,5.4417 -4.2197,10.9383 -5.5479,16.6457 -0.8871,4.0107 -1.7171,8.1029 -1.3876,12.2334 0.2703,1.8417 0.5898,4.2871 2.8431,4.544 2.6767,-0.4943 4.2189,-2.9895 5.6778,-5.0713 2.7609,-4.4918 5.0785,-9.2184 7.3211,-13.9869 3.1232,-6.4179 6.2932,-12.8138 9.6399,-19.1189 3.9223,-7.3714 7.9338,-14.6969 12.2088,-21.871 4.3813,-7.3137 8.8715,-14.5602 13.4667,-21.7417 4.7106,-7.2771 9.4625,-14.5308 14.5407,-21.5589 5.4939,-7.5446 11.1541,-14.969 17.1576,-22.1183 6.4371,-7.6341 13.0276,-15.1459 20.085,-22.2182 7.1845,-7.0794 14.5914,-13.9389 22.5076,-20.2019 7.5345,-5.937 15.2511,-11.6485 23.4545,-16.6398 7.218,-4.384 14.582,-8.5241 22.1643,-12.2492 6.198,-3.0491 -5.4475,2.5646 0.8657,-0.2419 4.1137,-1.8272 8.2531,-3.5931 12.4281,-5.2759 1.5551,-0.6539 3.1728,-1.2485 4.5947,-2.1666 0.03,-0.017 0.25,0.4158 0.2224,0.4299 z"
         id="path4062"
         style="fill:#000000;fill-opacity:1;fill-rule:evenodd;stroke:#000000;stroke-width:7.03041124;stroke-miterlimit:4;stroke-opacity:1;stroke-dasharray:none"
         inkscape:transform-center-x="186.75595"
         inkscape:transform-center-y="131.41486"
         sodipodi:nodetypes="ccccccccccccccccccccccccccccccccccccccccccccccccccccccccscccccccccccccccccccccccccccccccccccccccccccccccccccccccccccccccccccccccc" />
      <path
         sodipodi:nodetypes="ccccccccccccccccccccccccccccccccccccccccccccccccccccccccscccccccccccccccccccccccccccccccccccccccccccccccccccccccccccccccccccccccc"
         inkscape:transform-center-x="221.43144"
         style="fill:#000000;fill-opacity:1;fill-rule:evenodd;stroke:#000000;stroke-width:7.03041124;stroke-miterlimit:4;stroke-opacity:1;stroke-dasharray:none"
         id="path4064"
         d="m 1218.682,2047.5577 c -1.3938,1.078 -2.8244,2.0999 -4.3011,3.0639 -3.8911,2.4035 -7.9344,4.5495 -11.9624,6.712 -6.099,3.285 5.6269,-2.1307 -0.4653,1.167 -7.4278,3.8825 -14.5841,8.2424 -21.6359,12.7633 -7.9725,5.1042 -15.4752,10.8799 -22.8261,16.8303 -7.7291,6.2639 -15.0179,13.0267 -22.055,20.0512 -6.9347,7.0087 -13.4831,14.3813 -19.9221,21.8433 -6.0118,6.9885 -11.6695,14.2669 -17.176,21.6565 -5.121,6.8836 -9.9014,14.0089 -14.5584,21.2112 -4.6033,7.129 -9.0041,14.3845 -13.3396,21.6784 -4.2208,7.1274 -8.2981,14.3381 -12.3518,21.5614 -3.4855,6.1323 -6.8428,12.3359 -10.1807,18.5492 -2.4297,4.7058 -5.086,9.2839 -8.3579,13.4542 -1.8989,2.2554 -4.0943,4.3058 -7.1585,4.4309 -2.6098,-0.3815 -3.5398,-2.6685 -4.233,-4.9211 -0.9565,-4.1735 -0.4623,-8.4509 0.1046,-12.6389 1.0207,-6.4467 3.0688,-12.658 5.2442,-18.7906 2.6183,-7.2255 5.8286,-14.2103 9.1924,-21.113 3.6396,-7.3914 7.6307,-14.6001 11.7311,-21.7432 4.0103,-6.9148 8.133,-13.7628 12.3444,-20.5566 4.0887,-6.6755 8.3544,-13.2386 12.6658,-19.7715 4.1005,-6.122 8.2909,-12.1838 12.5118,-18.2233 3.3092,-4.6602 6.6548,-9.2928 9.7434,-14.1035 1.6617,-2.7119 3.2198,-5.5344 3.6061,-8.7258 -0.071,-2.7971 -1.7225,-3.4116 -4.1806,-3.8429 -4.1816,-0.3276 -8.2857,0.7075 -12.2975,1.7537 -6.2479,1.7826 -12.2935,4.1827 -18.286,6.6744 -7.8819,3.2897 -15.5357,7.0875 -23.144,10.9586 -10.1732,5.1996 -20.1534,10.7631 -30.1391,16.3109 -12.4237,6.9469 -24.86559,13.8611 -37.3289,20.7368 -12.51203,6.8627 -25.06133,13.6571 -37.6126,20.4477 -10.95291,5.9515 -22.01403,11.6989 -33.15006,17.2992 -8.47043,4.2273 -17.04597,8.2453 -25.8183,11.8067 -4.58383,1.6287 -9.34686,3.8553 -14.32305,3.2849 -0.32328,-0.1439 -0.68413,-0.2227 -0.96974,-0.4316 -2.13383,-1.5609 0.58119,-5.1987 1.44843,-6.6119 4.25638,-6.0452 9.59825,-11.2264 14.84591,-16.3974 8.26782,-8.0245 16.96273,-15.5907 25.70016,-23.095 10.37374,-8.8995 20.9229,-17.5904 31.47293,-26.2791 10.57869,-8.7795 21.31113,-17.3693 32.08876,-25.9024 9.24184,-7.3084 18.51804,-14.5731 27.83006,-21.7923 7.2771,-5.6085 14.5891,-11.1718 21.9052,-16.7294 4.7696,-3.614 9.6044,-7.1665 13.8646,-11.3839 1.9294,-2.1049 3.28,-4.031 2.8013,-6.9401 -0.9861,-2.6837 -3.5438,-4.1466 -5.8805,-5.531 -4.2413,-2.3567 -8.7385,-4.1937 -13.2434,-5.9737 -6.5226,-2.518 -13.1461,-4.7618 -19.7337,-7.1014 -7.68847,-2.6725 -15.33371,-5.4656 -22.95687,-8.3185 -7.33613,-2.7521 -14.59992,-5.6909 -21.87422,-8.6014 -6.59297,-2.6721 -13.20533,-5.2967 -19.87138,-7.7813 -6.17578,-2.2809 -12.44335,-4.2976 -18.72346,-6.2678 -4.96097,-1.5587 -9.93246,-3.101 -14.73499,-5.1047 -0.79416,-0.3885 -5.25973,-2.0924 -3.76209,-3.7771 0.24484,-0.2754 0.61973,-0.3987 0.92977,-0.598 0.5245,-0.1876 1.03655,-0.4147 1.57354,-0.5631 2.78354,-0.7689 5.72802,-0.9826 8.59033,-1.2242 3.51535,-0.2968 5.05702,-0.3662 8.67321,-0.5844 13.27731,-0.7311 26.57466,-0.987 39.86862,-1.194 17.41762,-0.1508 34.83613,-0.1911 52.25434,-0.2273 18.7278,-0.064 37.4556,-0.098 56.1835,-0.1163 18.3181,-0.053 36.6353,0.129 54.952,0.3416 15.6367,0.2158 31.273,0.4608 46.9097,0.6867 8.313,0.1302 16.6269,0.1951 24.9408,0.2528 0.4205,0.01 0.2722,5.9574 -0.1484,5.947 l 0,0 c -8.3467,0.4067 -16.6947,0.7865 -25.0469,1.0646 -15.6784,0.5069 -31.3597,0.9241 -47.0458,1.0942 -18.3235,0.1856 -36.6473,0.301 -54.9717,0.3334 -18.7359,0 -37.4721,-0.031 -56.2074,-0.2156 -17.41693,-0.1884 -34.83392,-0.4734 -52.24169,-1.0947 -13.23528,-0.5116 -26.4716,-1.0741 -39.67724,-2.1246 -6.12966,-0.4613 -12.25928,-0.9218 -18.38223,-1.4623 -0.0314,0 -1.00997,-0.011 -0.97488,0.034 0.53083,0.6706 3.54125,0.9834 4.2577,1.3981 4.98465,1.3631 9.97835,2.6918 14.96627,4.0428 6.39588,1.7977 12.75662,3.7201 19.00417,5.9884 6.70452,2.4346 13.3604,4.9957 20.02452,7.5383 7.30375,2.7805 14.6232,5.5191 21.95776,8.2178 7.62851,2.8311 15.25389,5.6718 22.85022,8.5885 6.5809,2.5246 13.1649,5.0656 19.5563,8.0456 4.4732,2.1467 8.9614,4.3266 13.0626,7.1401 2.4572,1.8144 4.9633,3.7374 6.0391,6.713 0.8142,3.6694 -0.4329,6.1885 -2.4708,9.2106 -3.8532,4.915 -8.4487,9.1356 -13.2043,13.1681 -7.0343,6.0087 -14.1611,11.908 -21.2234,17.8837 -9.05219,7.6394 -18.07803,15.3099 -27.18965,22.8786 -10.58995,8.7846 -21.16711,17.585 -31.83887,26.2705 -10.56271,8.5935 -21.18027,17.1189 -31.80005,25.6416 -8.85348,7.1266 -17.7085,14.2517 -26.44311,21.5241 -5.45187,4.5296 -10.95269,9.0213 -16.04496,13.9591 -1.49633,1.5491 -1.09745,1.0577 -2.28807,2.5457 -0.62838,0.7853 -1.10908,1.7835 0.39981,1.5911 4.63931,-1.1279 8.77116,-3.7452 13.04444,-5.7736 8.3752,-4.4129 16.7095,-8.9026 24.98655,-13.4971 10.90828,-6.0506 21.78042,-12.1657 32.62467,-18.3305 12.43268,-7.0786 24.88438,-14.1255 37.43693,-20.9901 12.50426,-6.7813 25.05271,-13.4847 37.78131,-19.8378 10.2209,-5.0886 20.4879,-10.0876 30.8879,-14.8019 7.8338,-3.5035 15.7018,-6.9413 23.746,-9.9397 6.1943,-2.2468 12.4398,-4.4323 18.9202,-5.7074 4.2941,-0.7614 8.7079,-1.4627 13.0316,-0.4931 2.7658,0.8835 4.6108,1.9798 5.1143,5.0401 0.097,3.7834 -1.4035,7.29 -3.0732,10.6195 -2.7607,5.1502 -5.8378,10.1157 -9.0584,14.9907 -4.0452,6.1727 -8.1272,12.3211 -12.1822,18.4874 -4.2525,6.5327 -8.5292,13.0513 -12.5749,19.7152 -4.1249,6.8189 -8.2015,13.6677 -12.1319,20.6011 -4.0137,7.1105 -7.9674,14.2558 -11.6713,21.534 -3.3998,6.7166 -6.6596,13.5081 -9.4639,20.4986 -2.144,5.4417 -4.2197,10.9383 -5.5479,16.6457 -0.8871,4.0107 -1.7171,8.1029 -1.3876,12.2334 0.2703,1.8417 0.5898,4.2871 2.8431,4.544 2.6767,-0.4943 4.2189,-2.9895 5.6778,-5.0713 2.7609,-4.4918 5.0785,-9.2184 7.3211,-13.9869 3.1232,-6.4179 6.2932,-12.8138 9.6399,-19.1189 3.9223,-7.3714 7.9338,-14.6969 12.2088,-21.871 4.3813,-7.3137 8.8715,-14.5602 13.4667,-21.7417 4.7106,-7.2771 9.4625,-14.5308 14.5407,-21.5589 5.4939,-7.5446 11.1541,-14.969 17.1576,-22.1183 6.4371,-7.6341 13.0276,-15.1459 20.085,-22.2182 7.1845,-7.0794 14.5914,-13.9389 22.5076,-20.2019 7.5345,-5.937 15.2511,-11.6485 23.4545,-16.6398 7.218,-4.384 14.582,-8.5241 22.1643,-12.2492 6.198,-3.0491 -5.4475,2.5646 0.8657,-0.2419 4.1137,-1.8272 8.2531,-3.5931 12.4281,-5.2759 1.5551,-0.6539 3.1728,-1.2485 4.5947,-2.1666 0.03,-0.017 0.25,0.4158 0.2224,0.4299 z"
         inkscape:connector-curvature="0"
         inkscape:transform-center-y="136.84704" />
      <path
         inkscape:transform-center-y="-159.62575"
         inkscape:connector-curvature="0"
         d="m 1182.0271,1973.6033 c -1.6305,-0.6681 -3.2308,-1.3961 -4.804,-2.1929 -4.027,-2.1681 -7.9071,-4.5967 -11.7939,-7.0038 -5.8944,-3.6394 4.6587,3.8077 -1.2433,0.1806 -7.0763,-4.4915 -14.4302,-8.5091 -21.8713,-12.3556 -8.4066,-4.3523 -17.1599,-7.962 -25.9885,-11.3529 -9.2893,-3.5616 -18.7904,-6.4925 -28.3924,-9.0746 -9.537,-2.5012 -19.1961,-4.486 -28.8779,-6.3314 -9.0581,-1.7121 -18.1902,-2.9726 -27.3431,-4.0466 -8.5218,-0.9931 -17.0827,-1.5704 -25.6486,-2.0023 -8.47554,-0.4221 -16.95939,-0.6055 -25.44384,-0.7132 -8.28291,-0.092 -16.56621,-0.017 -24.84862,0.084 -7.05348,0.048 -14.1046,0.2419 -21.15443,0.4578 -5.29019,0.2488 -10.58309,0.2374 -15.83063,-0.511 -2.90268,-0.5168 -5.77608,-1.3929 -7.41652,-3.984 -0.97451,-2.4509 0.54109,-4.3998 2.1453,-6.1264 3.1361,-2.9151 7.08754,-4.6258 10.99791,-6.2289 6.09335,-2.3394 12.49655,-3.6713 18.89523,-4.8537 7.56662,-1.3452 15.22078,-2.0574 22.8806,-2.5956 8.22094,-0.5437 16.4594,-0.6917 24.69571,-0.7122 7.99354,0.016 15.98539,0.162 23.97469,0.4123 7.8256,0.2031 15.6422,0.6158 23.4556,1.0831 7.352,0.4902 14.6969,1.0882 22.0377,1.7239 5.6905,0.5358 11.3752,1.1168 17.0857,1.3863 3.1794,0.083 6.4028,0.021 9.3598,-1.2399 2.3869,-1.4601 2.0933,-3.1976 1.2378,-5.542 -1.8071,-3.7852 -4.7556,-6.8219 -7.6675,-9.7731 -4.6678,-4.5195 -9.7691,-8.5551 -14.9232,-12.4989 -6.7899,-5.1811 -13.9058,-9.9106 -21.0625,-14.564 -9.5895,-6.2105 -19.3978,-12.0718 -29.1952,-17.9458 -12.228,-7.2858 -24.43682,-14.6037 -36.62301,-21.9594 -12.19929,-7.4044 -24.35806,-14.8752 -36.51453,-22.3496 -10.6306,-6.5097 -21.13856,-13.2153 -31.55657,-20.0592 -7.89617,-5.2219 -15.66363,-10.6396 -23.13406,-16.4559 -3.70241,-3.1554 -8.01221,-6.167 -10.00633,-10.7617 -0.037,-0.3519 -0.1492,-0.7038 -0.11109,-1.0556 0.28486,-2.6284 4.7928,-2.0961 6.45029,-2.0516 7.36348,0.6635 14.52147,2.6991 21.62352,4.6582 11.08333,3.1479 21.9833,6.8948 32.85093,10.7095 12.89407,4.5342 25.69519,9.3246 38.49484,14.1168 12.89261,4.7717 25.69781,9.7714 38.47651,14.8385 10.9502,4.3495 21.8797,8.7505 32.7877,13.2054 8.4957,3.4979 16.9696,7.0486 25.4407,10.6058 5.5146,2.3235 11.0086,4.7344 16.791,6.3151 2.7876,0.6185 5.131,0.8251 7.411,-1.0441 1.8311,-2.1958 1.8192,-5.1423 1.8497,-7.8581 -0.08,-4.8514 -0.7374,-9.6646 -1.4483,-14.456 -1.0806,-6.9077 -2.4492,-13.7657 -3.7168,-20.6406 -1.5298,-7.9946 -2.9335,-16.0122 -4.2744,-24.0405 -1.2847,-7.7293 -2.3715,-15.4893 -3.4881,-23.2443 -0.9824,-7.0457 -2.0156,-14.0845 -3.1969,-21.0998 -1.1126,-6.4888 -2.4999,-12.925 -3.9337,-19.3489 -1.1306,-5.0756 -2.2807,-10.1522 -2.9467,-15.3132 -0.061,-0.882 -0.8178,-5.6012 1.3901,-5.1466 0.3609,0.074 0.6551,0.3374 0.9827,0.5062 0.4247,0.3604 0.8774,0.6903 1.2745,1.0812 2.0576,2.0262 3.7149,4.4693 5.3553,6.8273 2.0147,2.896 2.8457,4.1964 4.8427,7.2191 7.2718,11.1329 14.1421,22.5208 20.9684,33.9302 8.8394,15.0087 17.5835,30.0734 26.324,45.1399 9.4193,16.1868 18.8127,32.3885 28.1924,48.5982 9.205,15.8375 18.206,31.7916 27.1802,47.7606 7.6315,13.6497 15.2375,27.3137 22.8602,40.9684 4.0437,7.2644 8.1445,14.4969 12.2514,21.7258 0.2016,0.3691 -5.0231,3.2144 -5.2244,2.8449 l 0,0 c -4.5256,-7.0251 -9.0285,-14.0648 -13.4454,-21.1589 -8.2782,-13.3245 -16.4802,-26.6963 -24.4705,-40.1958 -9.3225,-15.7758 -18.5844,-31.587 -27.7746,-47.4402 -9.368,-16.2257 -18.7092,-32.4673 -27.917,-48.7848 -8.5453,-15.1777 -17.007,-30.4038 -25.1728,-45.79 -6.1746,-11.7179 -12.3056,-23.4621 -17.9987,-35.4238 -2.6653,-5.5391 -5.3313,-11.0777 -7.9247,-16.6506 -0.016,-0.027 -0.4955,-0.8802 -0.5169,-0.8273 -0.3153,0.795 0.919,3.5585 0.9181,4.3863 1.3118,4.9984 2.658,9.9875 3.9819,14.9826 1.6411,6.4379 3.1566,12.9076 4.316,19.4523 1.2438,7.0236 2.3538,14.0683 3.4839,21.1109 1.2439,7.7155 2.5319,15.4236 3.8621,23.1249 1.3624,8.022 2.715,16.0461 3.9872,24.0831 1.1041,6.9615 2.1955,13.9339 2.8105,20.9591 0.3775,4.9472 0.7337,9.9241 0.3478,14.8825 -0.3427,3.0352 -0.7551,6.1671 -2.7941,8.5866 -2.7707,2.5398 -5.5759,2.7193 -9.212,2.4655 -6.1831,-0.8795 -12.136,-2.749 -18.0061,-4.8512 -8.7208,-3.0876 -17.3932,-6.3099 -26.0994,-9.4382 -11.142,-4.0197 -22.2978,-8.0011 -33.4083,-12.1076 -12.90266,-4.7789 -25.81261,-9.5388 -38.67035,-14.438 -12.72354,-4.8508 -25.41554,-9.7832 -38.1063,-14.7189 -10.59856,-4.104 -21.19659,-8.2101 -31.86197,-12.1383 -6.64869,-2.4567 -13.28902,-4.9747 -20.11142,-6.9158 -2.08972,-0.5213 -1.46472,-0.4216 -3.34868,-0.7087 -0.99427,-0.1515 -2.09909,-0.069 -1.17802,1.1418 3.29644,3.4538 7.62902,5.7234 11.5223,8.41 8.00928,5.0467 16.06463,10.0196 24.18211,14.8904 10.69411,6.4216 21.42601,12.7796 32.18701,19.0886 12.34659,7.2277 24.67523,14.4877 36.89643,21.9263 12.1249,7.4383 24.20449,14.9539 36.07069,22.8006 9.5173,6.3073 18.9801,12.6993 28.2628,19.3488 6.951,5.0325 13.8622,10.1275 20.481,15.5948 5.0429,4.241 10.0584,8.557 14.4029,13.5317 2.8064,3.3381 5.6206,6.8099 6.9428,11.0391 0.6178,2.837 0.5908,4.983 -1.8077,6.9492 -3.228,1.9757 -7.0151,2.4295 -10.7334,2.6483 -5.8405,0.1842 -11.6793,0 -17.5115,-0.3495 -7.3683,-0.4169 -14.734,-0.8778 -22.1017,-1.3064 -7.7837,-0.4164 -15.5673,-0.8608 -23.3613,-1.0326 -7.9678,-0.1628 -15.93729,-0.2688 -23.90699,-0.206 -8.16473,0.079 -16.32959,0.228 -24.48464,0.6594 -7.51665,0.414 -15.02816,0.9867 -22.48426,2.0533 -5.78465,0.8641 -11.5827,1.8148 -17.18955,3.5183 -3.91692,1.2371 -7.87587,2.5643 -11.28824,4.915 -1.4598,1.1549 -3.41783,2.6543 -2.51367,4.7342 1.76643,2.0709 4.69844,2.1589 7.23078,2.3814 5.27046,0.1451 10.52262,-0.2111 15.77356,-0.6532 7.11966,-0.5042 14.24368,-0.9568 21.3774,-1.211 8.34497,-0.2889 16.69479,-0.4776 25.04524,-0.3624 8.5245,0.1375 17.04526,0.4029 25.56217,0.7917 8.6575,0.4409 17.3153,0.9293 25.941,1.8131 9.2807,0.9856 18.5405,2.1753 27.7338,3.7998 9.8298,1.7576 19.6305,3.7093 29.284,6.285 9.7232,2.6823 19.3671,5.6671 28.7491,9.3912 8.9089,3.5566 17.7135,7.3836 26.1378,11.9923 7.4056,4.059 14.6731,8.3663 21.6903,13.0703 5.7396,3.843 -4.9448,-3.4354 0.6423,0.6287 3.6392,2.649 7.2383,5.3509 10.7831,8.1251 1.3439,1.0198 2.6676,2.1235 4.1737,2.8959 0.03,0.017 -0.2351,0.4244 -0.2611,0.4075 z"
         id="path4066"
         style="fill:#000000;fill-opacity:1;fill-rule:evenodd;stroke:#000000;stroke-width:7.03041124;stroke-miterlimit:4;stroke-opacity:1;stroke-dasharray:none"
         inkscape:transform-center-x="211.66332"
         sodipodi:nodetypes="ccccccccccccccccccccccccccccccccccccccccccccccccccccccccscccccccccccccccccccccccccccccccccccccccccccccccccccccccccccccccccccccccc" />
      <path
         sodipodi:nodetypes="ccccccccccccccccccccccccccccccccccccccccccccccccccccccccscccccccccccccccccccccccccccccccccccccccccccccccccccccccccccccccccccccccc"
         inkscape:transform-center-x="-28.451647"
         style="fill:#000000;fill-opacity:1;fill-rule:evenodd;stroke:#000000;stroke-width:7.03041124;stroke-miterlimit:4;stroke-opacity:1;stroke-dasharray:none"
         id="path4068"
         d="m 1227.7461,1904.882 c -0.2367,-1.7461 -0.4064,-3.496 -0.5029,-5.2568 -0.1359,-4.5716 0.027,-9.1461 0.1685,-13.7158 0.2046,-6.9244 -0.9682,5.9384 -0.7781,-0.9864 0.3516,-8.374 0.154,-16.7515 -0.2354,-25.1189 -0.4341,-9.4565 -1.6846,-18.8419 -3.1623,-28.1831 -1.5602,-9.8256 -3.7725,-19.5193 -6.3374,-29.1259 -2.6024,-9.5099 -5.713,-18.8673 -8.9558,-28.1747 -3.0463,-8.7006 -6.5207,-17.2395 -10.1671,-25.7031 -3.4008,-7.8766 -7.1813,-15.5792 -11.0902,-23.2135 -3.8722,-7.5511 -7.9553,-14.99 -12.1043,-22.3916 -4.0618,-7.2192 -8.2684,-14.3553 -12.4971,-21.4775 -3.5683,-6.0845 -7.2617,-12.094 -10.9736,-18.0914 -2.8606,-4.457 -5.4972,-9.0465 -7.4728,-13.9652 -1.0038,-2.7722 -1.6818,-5.6987 -0.258,-8.4149 1.6353,-2.0694 4.0809,-1.7313 6.3782,-1.2053 4.0926,1.2583 7.5499,3.825 10.8934,6.41 5.0726,4.1073 9.4277,8.9867 13.651,13.9369 4.9483,5.8803 9.3922,12.1529 13.6882,18.5174 4.5813,6.8476 8.8287,13.9084 12.9646,21.031 3.9829,6.9306 7.8524,13.9247 11.6303,20.9688 3.7369,6.8787 7.2878,13.8544 10.7898,20.8547 3.2515,6.6121 6.4061,13.272 9.5259,19.9472 2.3813,5.196 4.7204,10.4096 7.3423,15.4898 1.5178,2.7949 3.1832,5.5554 5.7537,7.4858 2.4579,1.3371 3.8158,0.2141 5.4184,-1.699 2.3745,-3.4576 3.5301,-7.5294 4.63,-11.5268 1.5801,-6.3022 2.5244,-12.7378 3.3628,-19.1733 1.092,-8.4708 1.6299,-16.9981 2.0815,-25.5227 0.5837,-11.41 0.7556,-22.8349 0.9439,-34.2567 0.1957,-14.2326 0.4288,-28.4647 0.7059,-42.6961 0.3128,-14.2671 0.7033,-28.5323 1.0981,-42.7973 0.3222,-12.4613 0.8755,-24.9142 1.5935,-37.3584 0.5742,-9.4493 1.3823,-18.8849 2.6842,-28.2627 0.8814,-4.784 1.3346,-10.0222 4.3167,-14.0465 0.2863,-0.208 0.5349,-0.4812 0.8586,-0.624 2.4187,-1.0676 4.2117,3.1026 5.0019,4.5603 3.1072,6.7087 4.9233,13.9255 6.7777,21.0556 2.8155,11.1724 5.0205,22.4855 7.1507,33.8045 2.5203,13.4337 4.7723,26.915 7.0219,40.3959 2.3139,13.5512 4.3867,27.1406 6.3878,40.7409 1.7083,11.6579 3.3617,23.3236 4.9576,34.9976 1.2186,9.1065 2.3805,18.2205 3.5355,27.3352 0.7451,5.9376 1.4042,11.901 2.9264,17.699 0.8582,2.7234 1.851,4.8562 4.6098,5.8961 2.8171,0.4879 5.3629,-0.9957 7.7301,-2.3272 4.1615,-2.495 8.0011,-5.4709 11.7951,-8.4822 5.442,-4.3897 10.6969,-9.004 16.0169,-13.5392 6.1586,-5.3221 12.4002,-10.5466 18.6825,-15.722 6.0514,-4.9772 12.2284,-9.7984 18.3861,-14.6429 5.6106,-4.3736 11.1897,-8.7878 16.6745,-13.3185 5.0632,-4.2079 9.9434,-8.6275 14.7898,-13.0811 3.8303,-3.517 7.6517,-7.0513 11.7883,-10.2086 0.7333,-0.4938 4.4419,-3.5088 5.1521,-1.3694 0.1164,0.3496 0.035,0.736 0.053,1.1042 -0.1,0.548 -0.1591,1.105 -0.2991,1.6443 -0.726,2.795 -2.0131,5.4519 -3.235,8.0515 -1.5006,3.1928 -2.2113,4.5626 -3.8306,7.8034 -6.0054,11.864 -12.4325,23.5078 -18.9002,35.1243 -8.5782,15.1595 -17.2525,30.2645 -25.9303,45.3672 -9.3085,16.2508 -18.6429,32.4865 -27.991,48.7144 -9.1132,15.8905 -18.4294,31.6627 -27.7718,47.4191 -8.0053,13.4339 -16.0356,26.8529 -24.0496,40.2817 -4.2693,7.1341 -8.4824,14.3018 -12.6894,21.4729 -0.2189,0.3592 -5.2953,-2.7429 -5.076,-3.102 l 0,0 c 3.8211,-7.4318 7.6663,-14.8513 11.6015,-22.2235 7.4002,-13.8314 14.8796,-27.6204 22.5753,-41.29 9.001,-15.9614 18.063,-31.888 27.1971,-47.7736 9.3679,-16.2258 18.7629,-32.4363 28.2904,-48.5692 8.8716,-14.9893 17.827,-29.9304 27.0689,-44.6953 7.0607,-11.2063 14.166,-22.388 21.6786,-33.2992 3.4643,-5.0778 6.9279,-10.1559 10.4575,-15.1883 0.015,-0.027 0.5145,-0.8692 0.458,-0.8613 -0.8462,0.1244 -2.6223,2.5751 -3.3396,2.9882 -3.6729,3.6353 -7.3204,7.2957 -10.9844,10.9397 -4.7548,4.6402 -9.6,9.1875 -14.6882,13.464 -5.4607,4.5889 -11.0066,9.0726 -16.5406,13.5726 -6.0599,4.935 -12.0913,9.9044 -18.0957,14.9071 -6.2661,5.1909 -12.5388,10.3743 -18.863,15.4946 -5.4768,4.4369 -10.9693,8.8683 -16.7458,12.9135 -4.0957,2.8005 -8.2277,5.5974 -12.7148,7.7424 -2.7999,1.2208 -5.7184,2.4296 -8.8332,1.8736 -3.5849,-1.1296 -5.143,-3.4693 -6.7412,-6.7451 -2.3299,-5.7945 -3.6873,-11.8846 -4.8018,-18.0194 -1.6865,-9.0962 -3.2321,-18.2179 -4.876,-27.3218 -2.0898,-11.6591 -4.2197,-23.311 -6.2186,-34.9862 -2.3127,-13.5635 -4.6455,-27.1238 -6.8315,-40.7085 -2.1609,-13.4444 -4.2353,-26.9021 -6.3062,-40.3605 -1.7452,-11.2306 -3.4882,-22.4619 -5.419,-33.6624 -1.1967,-6.9863 -2.3362,-13.996 -4.0664,-20.8749 -0.5934,-2.0704 -0.3672,-1.4793 -1.0606,-3.2544 -0.3659,-0.9368 -0.9898,-1.8524 -1.5778,-0.4493 -1.3429,4.5817 -1.1421,9.4686 -1.5222,14.1836 -0.3659,9.4596 -0.6449,18.9222 -0.8044,28.3875 -0.2142,12.4722 -0.3544,24.9453 -0.4377,37.4191 -0.086,14.3063 -0.2091,28.6132 -0.5405,42.9164 -0.3793,14.2196 -0.8482,28.4386 -1.7105,42.6384 -0.7037,11.3959 -1.5079,22.7869 -2.6252,34.1507 -0.8828,8.536 -1.8396,17.0688 -3.265,25.5345 -1.1514,6.4877 -2.3814,12.9893 -4.5173,19.2391 -1.4877,4.0995 -3.0873,8.2725 -6.0888,11.5322 -2.148,1.9535 -4.02,3.0031 -6.922,1.9091 -3.325,-1.8077 -5.6116,-4.8605 -7.6602,-7.9713 -3.0798,-4.9659 -5.8397,-10.1145 -8.4531,-15.3401 -3.3231,-6.5896 -6.6068,-13.199 -9.9195,-19.7939 -3.5312,-6.949 -7.0381,-13.912 -10.7863,-20.7477 -3.843,-6.9818 -7.7359,-13.9365 -11.7751,-20.8071 -4.1508,-7.0314 -8.3623,-14.0278 -12.8134,-20.8746 -4.1169,-6.3026 -8.3686,-12.5214 -13.0204,-18.4453 -3.6406,-4.5776 -7.363,-9.1235 -11.6417,-13.1275 -3.0298,-2.7736 -6.1587,-5.5385 -9.9006,-7.3184 -1.7301,-0.6867 -4.0076,-1.6327 -5.3568,0.1902 -0.9102,2.5653 0.4796,5.1485 1.5531,7.4528 2.5095,4.6369 5.4441,9.0073 8.4524,13.3337 3.9965,5.9137 7.9505,11.857 11.7375,17.9079 4.4227,7.0825 8.761,14.2193 12.8365,21.5086 4.1431,7.4512 8.1737,14.963 12.0954,22.5333 3.9469,7.7181 7.8529,15.4601 11.4003,23.3721 3.7868,8.5301 7.3864,17.1442 10.5762,25.9181 3.3928,9.3917 6.6029,18.8552 9.199,28.5032 2.5387,9.7617 4.7757,19.6059 6.2416,29.593 1.3743,9.4937 2.4623,19.0322 2.6832,28.6322 0.1876,8.4429 0.091,16.8904 -0.474,25.3195 -0.4584,6.8921 0.5027,-6 -0.2234,0.8706 -0.4745,4.4761 -1.0148,8.944 -1.645,13.401 -0.2112,1.6737 -0.5052,3.3719 -0.421,5.0625 3e-4,0.034 -0.4851,0.01 -0.4835,-0.022 z"
         inkscape:connector-curvature="0"
         inkscape:transform-center-y="-256.98387" />
      <path
         inkscape:transform-center-y="-136.84718"
         inkscape:connector-curvature="0"
         d="m 1310.1199,1910.1152 c 1.3939,-1.0781 2.8245,-2.1 4.3011,-3.064 3.8912,-2.4035 7.9343,-4.5496 11.9625,-6.7119 6.099,-3.285 -5.6269,2.1307 0.4652,-1.1671 7.4279,-3.8825 14.5842,-8.2424 21.6359,-12.7633 7.9725,-5.1042 15.4753,-10.8799 22.8261,-16.8302 7.7292,-6.264 15.018,-13.0267 22.0551,-20.0513 6.9346,-7.0087 13.4831,-14.3812 19.9221,-21.8433 6.0118,-6.9885 11.6695,-14.2668 17.176,-21.6565 5.1209,-6.8835 9.9013,-14.0088 14.5584,-21.2111 4.6033,-7.129 9.004,-14.3845 13.3395,-21.6785 4.2211,-7.1272 8.2979,-14.3383 12.3515,-21.5615 3.4852,-6.1325 6.8429,-12.3359 10.1808,-18.5492 2.4296,-4.7058 5.0859,-9.2839 8.3579,-13.4542 1.8989,-2.2554 4.0943,-4.3058 7.1585,-4.4309 2.6098,0.3815 3.5398,2.6685 4.2329,4.9211 0.9566,4.1734 0.4624,8.4509 -0.1045,12.6389 -1.0207,6.4467 -3.0689,12.658 -5.2442,18.7906 -2.6184,7.2255 -5.8287,14.2103 -9.1925,21.113 -3.6395,7.3913 -7.6306,14.6001 -11.7311,21.7432 -4.0106,6.9146 -8.1329,13.7627 -12.3443,20.5565 -4.0887,6.6756 -8.3544,13.2386 -12.6658,19.7716 -4.1005,6.1219 -8.2909,12.1839 -12.5118,18.2233 -3.3093,4.6603 -6.6548,9.2928 -9.7435,14.1035 -1.6615,2.7119 -3.2195,5.5344 -3.606,8.7258 0.071,2.7971 1.7225,3.4116 4.1806,3.8429 4.1816,0.3276 8.2857,-0.7075 12.2975,-1.7537 6.2479,-1.7827 12.2934,-4.1827 18.2859,-6.6744 7.882,-3.2897 15.5358,-7.0875 23.1441,-10.9587 10.1732,-5.1995 20.1534,-10.7631 30.1391,-16.3109 12.4237,-6.9468 24.8656,-13.861 37.3289,-20.7367 12.5121,-6.8627 25.0613,-13.6571 37.6126,-20.4477 10.9529,-5.9516 22.0141,-11.6989 33.1501,-17.2992 8.4704,-4.2273 17.0459,-8.2453 25.8183,-11.8067 4.5837,-1.6287 9.3467,-3.8553 14.3229,-3.2849 0.3233,0.1439 0.6842,0.2226 0.9697,0.4316 2.134,1.5608 -0.581,5.1987 -1.4483,6.6119 -4.2563,6.0453 -9.5982,11.2264 -14.8459,16.3974 -8.2678,8.0245 -16.9627,15.5907 -25.7002,23.095 -10.3738,8.8995 -20.9229,17.5904 -31.4729,26.2791 -10.5787,8.7795 -21.3111,17.3693 -32.0888,25.9024 -9.2418,7.3084 -18.5179,14.5731 -27.83,21.7922 -7.2771,5.6086 -14.5891,11.1719 -21.9052,16.7295 -4.7696,3.614 -9.6045,7.1665 -13.8646,11.3838 -1.9294,2.1049 -3.2801,4.0311 -2.8013,6.9403 0.9861,2.6836 3.5438,4.1465 5.8805,5.5308 4.2415,2.3565 8.7385,4.1937 13.2434,5.9738 6.5226,2.518 13.1461,4.7618 19.7337,7.1014 7.6884,2.6725 15.3337,5.4656 22.9569,8.3185 7.3361,2.7521 14.5999,5.6909 21.8742,8.6014 6.5929,2.6721 13.2053,5.2967 19.8714,7.7813 6.1757,2.2809 12.4433,4.2975 18.7235,6.2678 4.9609,1.5586 9.9324,3.1009 14.735,5.1047 0.7943,0.3881 5.2597,2.0924 3.762,3.7771 -0.2446,0.2756 -0.6199,0.3983 -0.9298,0.598 -0.5246,0.1874 -1.0365,0.4147 -1.5735,0.5631 -2.7836,0.7688 -5.7281,0.9826 -8.5903,1.2242 -3.5154,0.2968 -5.057,0.3663 -8.6733,0.5843 -13.2772,0.7312 -26.5746,0.987 -39.8686,1.1941 -17.4176,0.1508 -34.8361,0.1911 -52.2543,0.2273 -18.7279,0.064 -37.4556,0.098 -56.1834,0.1163 -18.3182,0.053 -36.6354,-0.129 -54.9521,-0.3416 -15.6367,-0.2158 -31.2731,-0.4607 -46.9097,-0.6867 -8.313,-0.1302 -16.627,-0.195 -24.9408,-0.2529 -0.4205,-0.01 -0.2722,-5.9573 0.1484,-5.9469 l 0,0 c 8.3467,-0.4067 16.6948,-0.7864 25.0469,-1.0646 15.6784,-0.5069 31.3597,-0.9241 47.0458,-1.0942 18.3235,-0.1856 36.6473,-0.301 54.9717,-0.3334 18.7359,-10e-5 37.4721,0.031 56.2074,0.2156 17.4169,0.1884 34.834,0.4734 52.2417,1.0947 13.2353,0.5116 26.4716,1.0741 39.6772,2.1246 6.1297,0.4613 12.2592,0.9218 18.3822,1.4623 0.031,-5e-4 1.01,0.011 0.9749,-0.034 -0.5308,-0.6706 -3.5412,-0.9834 -4.2576,-1.398 -4.9847,-1.3632 -9.9785,-2.6919 -14.9663,-4.043 -6.3959,-1.7976 -12.7566,-3.7201 -19.0042,-5.9883 -6.7045,-2.4347 -13.3604,-4.9957 -20.0246,-7.5383 -7.3037,-2.7805 -14.6231,-5.5192 -21.9577,-8.2178 -7.6285,-2.8311 -15.2538,-5.6718 -22.8502,-8.5885 -6.5809,-2.5246 -13.1649,-5.0656 -19.5564,-8.0456 -4.4731,-2.1467 -8.9613,-4.3267 -13.0625,-7.1401 -2.4572,-1.8144 -4.9633,-3.7375 -6.0392,-6.713 -0.8142,-3.6694 0.433,-6.1886 2.4709,-9.2106 3.8532,-4.915 8.4487,-9.1356 13.2043,-13.1682 7.0343,-6.0086 14.1611,-11.908 21.2234,-17.8836 9.0522,-7.6394 18.0781,-15.3099 27.1896,-22.8786 10.59,-8.7846 21.1672,-17.585 31.8389,-26.2705 10.5627,-8.5936 21.1802,-17.1189 31.8001,-25.6415 8.8534,-7.1267 17.7085,-14.2519 26.443,-21.5242 5.4519,-4.5296 10.9528,-9.0212 16.045,-13.9591 1.4963,-1.5491 1.0975,-1.0576 2.2881,-2.5457 0.6283,-0.7853 1.1093,-1.7834 -0.3998,-1.5911 -4.6393,1.1279 -8.7711,3.7452 -13.0445,5.7736 -8.3752,4.4129 -16.7095,8.9026 -24.9865,13.4971 -10.9083,6.0506 -21.7804,12.1657 -32.6247,18.3305 -12.4326,7.0787 -24.8843,14.1255 -37.437,20.9901 -12.5041,6.7813 -25.0526,13.4847 -37.7811,19.8379 -10.221,5.0885 -20.488,10.0875 -30.888,14.8018 -7.8338,3.5035 -15.7018,6.9413 -23.746,9.9397 -6.1943,2.2467 -12.4398,4.4323 -18.9202,5.7074 -4.2942,0.7614 -8.7079,1.4626 -13.0316,0.4931 -2.7658,-0.8835 -4.6108,-1.9799 -5.1144,-5.0401 -0.097,-3.7834 1.4036,-7.29 3.0733,-10.6196 2.7607,-5.1501 5.8396,-10.1145 9.0584,-14.9906 4.0452,-6.1727 8.1272,-12.3212 12.1822,-18.4875 4.2524,-6.5326 8.5291,-13.0512 12.5749,-19.7151 4.1249,-6.819 8.2014,-13.6677 12.1319,-20.601 4.014,-7.1104 7.9673,-14.2559 11.6713,-21.5341 3.3997,-6.7166 6.6595,-13.5081 9.4639,-20.4986 2.144,-5.4417 4.2197,-10.9383 5.5479,-16.6458 0.8871,-4.0107 1.7171,-8.1028 1.3876,-12.2334 -0.2704,-1.8416 -0.5898,-4.287 -2.8431,-4.544 -2.6767,0.4944 -4.219,2.9896 -5.6778,5.0714 -2.7609,4.4918 -5.0785,9.2184 -7.3211,13.9869 -3.1232,6.4179 -6.2932,12.8138 -9.64,19.1189 -3.9222,7.3714 -7.9337,14.6969 -12.2087,21.871 -4.3814,7.3137 -8.8715,14.5602 -13.4667,21.7416 -4.7106,7.2772 -9.4624,14.5309 -14.5407,21.559 -5.4939,7.5445 -11.1541,14.9689 -17.1576,22.1183 -6.4371,7.6341 -13.0277,15.1459 -20.085,22.2182 -7.1846,7.0794 -14.5914,13.9388 -22.5075,20.2019 -7.5346,5.937 -15.2512,11.6485 -23.4546,16.6398 -7.218,4.3839 -14.582,8.524 -22.1644,12.2493 -6.1979,3.049 5.4475,-2.5647 -0.8656,0.2418 -4.1137,1.8271 -8.2531,3.5931 -12.4281,5.2759 -1.5551,0.6539 -3.1728,1.2484 -4.5948,2.1666 -0.029,0.017 -0.2512,-0.4151 -0.2227,-0.4297 z"
         id="path4070"
         style="fill:#000000;fill-opacity:1;fill-rule:evenodd;stroke:#000000;stroke-width:7.03041124;stroke-miterlimit:4;stroke-opacity:1;stroke-dasharray:none"
         inkscape:transform-center-x="-221.43091"
         sodipodi:nodetypes="ccccccccccccccccccccccccccccccccccccccccccccccccccccccccscccccccccccccccccccccccccccccccccccccccccccccccccccccccccccccccccccccccc" />
      <path
         sodipodi:nodetypes="ccccccccccccccccccccccccccccccccccccccccccccccccccccccccscccccccccccccccccccccccccccccccccccccccccccccccccccccccccccccccccccccccc"
         inkscape:transform-center-x="-211.66334"
         style="fill:#000000;fill-opacity:1;fill-rule:evenodd;stroke:#000000;stroke-width:7.03041124;stroke-miterlimit:4;stroke-opacity:1;stroke-dasharray:none"
         id="path4072"
         d="m 1346.7748,1984.0696 c 1.6306,0.6681 3.2309,1.3961 4.804,2.1928 4.0271,2.1682 7.9072,4.5965 11.7939,7.0039 5.8944,3.6394 -4.6587,-3.8077 1.2434,-0.1807 7.0763,4.4915 14.4302,8.5091 21.8713,12.3556 8.4066,4.3523 17.1599,7.9621 25.9884,11.3529 9.2894,3.5617 18.7905,6.4926 28.3925,9.0746 9.537,2.5012 19.196,4.4861 28.8779,6.3314 9.0581,1.7121 18.1901,2.9727 27.3431,4.0466 8.5217,0.9931 17.0826,1.5704 25.6485,2.0024 8.4756,0.4221 16.9594,0.6055 25.4439,0.7131 8.2829,0.092 16.5663,0.017 24.8486,-0.084 7.0535,-0.048 14.1046,-0.2418 21.1544,-0.4578 5.2902,-0.2488 10.5831,-0.2374 15.8307,0.5111 2.9026,0.5168 5.776,1.3928 7.4165,3.984 0.9745,2.4509 -0.5411,4.3998 -2.1454,6.1263 -3.1359,2.9151 -7.0875,4.6259 -10.9978,6.229 -6.0934,2.3394 -12.4966,3.6712 -18.8953,4.8536 -7.5666,1.3452 -15.2208,2.0574 -22.8806,2.5956 -8.2208,0.5438 -16.4594,0.6918 -24.6957,0.7122 -7.9935,-0.016 -15.9853,-0.162 -23.9746,-0.4123 -7.8256,-0.2031 -15.6422,-0.6158 -23.4556,-1.0831 -7.352,-0.4901 -14.697,-1.0881 -22.0378,-1.7238 -5.6906,-0.5358 -11.3752,-1.1169 -17.0857,-1.3864 -3.1793,-0.083 -6.4027,-0.021 -9.3598,1.24 -2.3868,1.46 -2.0933,3.1975 -1.2377,5.542 1.8071,3.7851 4.7555,6.8218 7.6675,9.7731 4.6678,4.5194 9.769,8.555 14.9231,12.4988 6.79,5.1812 13.9059,9.9107 21.0626,14.564 9.5895,6.2105 19.3978,12.0718 29.1952,17.9458 12.2279,7.2859 24.4368,14.6038 36.623,21.9594 12.1993,7.4045 24.358,14.8752 36.5145,22.3497 10.6307,6.5096 21.1386,13.2153 31.5566,20.0592 7.8961,5.2219 15.6636,10.6395 23.134,16.4559 3.7024,3.1553 8.0122,6.1669 10.0063,10.7616 0.037,0.3519 0.1493,0.7038 0.1111,1.0556 -0.2847,2.6285 -4.7927,2.0962 -6.4503,2.0517 -7.3635,-0.6635 -14.5214,-2.6991 -21.6235,-4.6583 -11.0833,-3.1478 -21.9833,-6.8948 -32.8509,-10.7095 -12.8941,-4.5342 -25.6952,-9.3246 -38.4949,-14.1168 -12.8926,-4.7717 -25.6978,-9.7713 -38.4765,-14.8385 -10.9501,-4.3494 -21.8796,-8.7504 -32.7876,-13.2054 -8.4957,-3.4978 -16.9697,-7.0486 -25.4408,-10.6057 -5.5146,-2.3236 -11.0086,-4.7345 -16.7909,-6.3152 -2.7876,-0.6184 -5.1311,-0.8251 -7.4111,1.0442 -1.8311,2.1958 -1.8191,5.1422 -1.8496,7.858 0.08,4.8515 0.7374,9.6646 1.4482,14.456 1.0807,6.9078 2.4492,13.7658 3.7169,20.6406 1.5297,7.9946 2.9335,16.0122 4.2744,24.0405 1.2847,7.7293 2.3715,15.4894 3.4881,23.2444 0.9823,7.0456 2.0155,14.0844 3.1969,21.0997 1.1125,6.4888 2.4999,12.925 3.9336,19.349 1.1307,5.0755 2.2808,10.1521 2.9467,15.3132 0.061,0.8819 0.8178,5.6012 -1.39,5.1465 -0.361,-0.074 -0.6549,-0.3377 -0.9828,-0.5062 -0.4246,-0.3606 -0.8774,-0.6903 -1.2744,-1.0811 -2.0576,-2.0263 -3.715,-4.4694 -5.3554,-6.8273 -2.0147,-2.8961 -2.8457,-4.1964 -4.8426,-7.2192 -7.2719,-11.1328 -14.1421,-22.5208 -20.9684,-33.9302 -8.8394,-15.0087 -17.5836,-30.0734 -26.324,-45.1399 -9.4194,-16.1868 -18.8127,-32.3885 -28.1925,-48.5981 -9.205,-15.8375 -18.2059,-31.7917 -27.1802,-47.7607 -7.6314,-13.6497 -15.2375,-27.3136 -22.8601,-40.9683 -4.0438,-7.2644 -8.1446,-14.4969 -12.2514,-21.7258 -0.2016,-0.3692 5.0231,-3.2144 5.2244,-2.845 l 0,0 c 4.5255,7.0251 9.0284,14.0649 13.4454,21.159 8.2782,13.3244 16.4801,26.6962 24.4705,40.1957 9.3225,15.7759 18.5843,31.587 27.7746,47.4402 9.368,16.2257 18.7092,32.4673 27.917,48.7849 8.5452,15.1776 17.007,30.4038 25.1728,45.79 6.1746,11.7179 12.3056,23.4621 17.9986,35.4237 2.6654,5.5391 5.3313,11.0777 7.9247,16.6506 0.016,0.027 0.4955,0.8802 0.5169,0.8273 0.3154,-0.795 -0.9189,-3.5585 -0.9181,-4.3862 -1.3118,-4.9985 -2.658,-9.9876 -3.9818,-14.9827 -1.6412,-6.4378 -3.1566,-12.9076 -4.3161,-19.4523 -1.2437,-7.0236 -2.3538,-14.0682 -3.4839,-21.1109 -1.2439,-7.7155 -2.5318,-15.4236 -3.862,-23.1248 -1.3625,-8.0221 -2.715,-16.0461 -3.9873,-24.0831 -1.1041,-6.9616 -2.1955,-13.934 -2.8105,-20.9592 -0.3774,-4.9472 -0.7336,-9.924 -0.3477,-14.8825 0.3427,-3.0352 0.7551,-6.1671 2.794,-8.5866 2.7707,-2.5398 5.576,-2.7193 9.2121,-2.4654 6.1831,0.8794 12.136,2.749 18.0061,4.8511 8.7208,3.0876 17.3932,6.3099 26.0994,9.4382 11.142,4.0198 22.2978,8.0012 33.4082,12.1076 12.9027,4.7789 25.8127,9.5389 38.6704,14.4381 12.7236,4.8507 25.4155,9.7831 38.1062,14.7189 10.5986,4.1039 21.1968,8.2101 31.862,12.1382 6.6487,2.4567 13.289,4.9748 20.1115,6.9158 2.0897,0.5213 1.4646,0.4217 3.3487,0.7087 0.9942,0.1515 2.0991,0.069 1.178,-1.1417 -3.2965,-3.4538 -7.629,-5.7234 -11.5223,-8.4101 -8.0093,-5.0467 -16.0647,-10.0196 -24.1821,-14.8904 -10.6942,-6.4216 -21.426,-12.7795 -32.1871,-19.0886 -12.3466,-7.2276 -24.6751,-14.4877 -36.8964,-21.9263 -12.1248,-7.4382 -24.2044,-14.9538 -36.0707,-22.8005 -9.5173,-6.3073 -18.98,-12.6993 -28.2627,-19.3488 -6.951,-5.0326 -13.8623,-10.1276 -20.4811,-15.5948 -5.0428,-4.2411 -10.0583,-8.5571 -14.4028,-13.5317 -2.8065,-3.3382 -5.6206,-6.81 -6.9429,-11.0392 -0.6177,-2.837 -0.5907,-4.983 1.8077,-6.9492 3.228,-1.9757 7.0151,-2.4295 10.7335,-2.6483 5.8405,-0.1842 11.6792,0 17.5114,0.3496 7.3684,0.4168 14.7341,0.8777 22.1018,1.3063 7.7836,0.4164 15.5672,0.8608 23.3612,1.0326 7.9679,0.1628 15.9373,0.2688 23.9069,0.2061 8.1648,-0.079 16.3297,-0.2281 24.4848,-0.6594 7.5166,-0.4141 15.0281,-0.9868 22.4842,-2.0534 5.7847,-0.8641 11.5827,-1.8147 17.1897,-3.5182 3.9169,-1.2371 7.8758,-2.5644 11.2882,-4.915 1.4597,-1.155 3.4178,-2.6543 2.5137,-4.7342 -1.7665,-2.0709 -4.6986,-2.159 -7.2309,-2.3815 -5.2704,-0.1451 -10.5226,0.2111 -15.7735,0.6532 -7.1197,0.5042 -14.2437,0.9569 -21.3775,1.211 -8.3449,0.289 -16.6947,0.4777 -25.0452,0.3625 -8.5245,-0.1376 -17.0452,-0.4029 -25.5621,-0.7918 -8.6576,-0.4409 -17.3153,-0.9292 -25.941,-1.8131 -9.2807,-0.9856 -18.5405,-2.1753 -27.7338,-3.7997 -9.8299,-1.7577 -19.6306,-3.7094 -29.284,-6.2851 -9.7233,-2.6823 -19.3671,-5.6671 -28.7492,-9.3911 -8.9088,-3.5566 -17.7135,-7.3837 -26.1377,-11.9924 -7.4056,-4.059 -14.673,-8.3663 -21.6904,-13.0702 -5.7395,-3.8431 4.9448,3.4353 -0.6423,-0.6288 -3.6391,-2.649 -7.2382,-5.3508 -10.7831,-8.1251 -1.3438,-1.0198 -2.6675,-2.1235 -4.1737,-2.8959 -0.029,-0.017 0.2339,-0.4251 0.2608,-0.4077 z"
         inkscape:connector-curvature="0"
         inkscape:transform-center-y="159.6256" />
      <path
         inkscape:transform-center-y="256.98389"
         inkscape:connector-curvature="0"
         d="m 1301.0558,2052.7908 c 0.2367,1.7462 0.4064,3.4961 0.503,5.2568 0.1358,4.5717 -0.027,9.1461 -0.1686,13.7158 -0.2046,6.9244 0.9682,-5.9384 0.7782,0.9865 -0.3516,8.374 -0.154,16.7514 0.2354,25.1189 0.4341,9.4564 1.6845,18.8419 3.1623,28.183 1.5602,9.8257 3.7725,19.5194 6.3374,29.1259 2.6024,9.5099 5.7129,18.8673 8.9558,28.1747 3.0463,8.7006 6.5206,17.2395 10.1671,25.7032 3.4008,7.8765 7.1813,15.5791 11.0901,23.2134 3.8722,7.5511 7.9553,14.99 12.1044,22.3916 4.0618,7.2192 8.2684,14.3554 12.497,21.4775 3.5684,6.0846 7.2617,12.0941 10.9737,18.0914 2.8606,4.457 5.4971,9.0465 7.4727,13.9653 1.0038,2.7722 1.6818,5.6986 0.258,8.4149 -1.6353,2.0694 -4.0809,1.7313 -6.3782,1.2052 -4.0925,-1.2582 -7.5499,-3.825 -10.8934,-6.4099 -5.0727,-4.1073 -9.4276,-8.9868 -13.651,-13.937 -4.9482,-5.8803 -9.3921,-12.1529 -13.6881,-18.5174 -4.5814,-6.8475 -8.8288,-13.9083 -12.9647,-21.031 -3.9829,-6.9306 -7.8523,-13.9247 -11.6302,-20.9687 -3.7369,-6.8788 -7.2878,-13.8545 -10.7898,-20.8547 -3.2516,-6.6121 -6.4062,-13.2721 -9.526,-19.9472 -2.3813,-5.1961 -4.7204,-10.4097 -7.3422,-15.4899 -1.5178,-2.7948 -3.1832,-5.5554 -5.7538,-7.4858 -2.4578,-1.337 -3.8158,-0.2141 -5.4184,1.6991 -2.3744,3.4576 -3.5301,7.5293 -4.63,11.5268 -1.58,6.3021 -2.5243,12.7377 -3.3627,19.1732 -1.0921,8.4709 -1.63,16.9982 -2.0815,25.5227 -0.5837,11.41 -0.7556,22.8349 -0.9439,34.2567 -0.1958,14.2327 -0.4289,28.4648 -0.7059,42.6962 -0.3129,14.2671 -0.7033,28.5322 -1.0982,42.7973 -0.3221,12.4613 -0.8755,24.9142 -1.5935,37.3584 -0.5742,9.4492 -1.3822,18.8849 -2.6842,28.2626 -0.8813,4.784 -1.3346,10.0222 -4.3166,14.0465 -0.2863,0.208 -0.5349,0.4812 -0.8587,0.624 -2.4187,1.0677 -4.2117,-3.1025 -5.0019,-4.5602 -3.1072,-6.7088 -4.9233,-13.9255 -6.7776,-21.0557 -2.8156,-11.1723 -5.0206,-22.4855 -7.1507,-33.8045 -2.5204,-13.4337 -4.7723,-26.9149 -7.022,-40.3959 -2.3139,-13.5512 -4.3867,-27.1406 -6.3877,-40.7409 -1.7084,-11.6578 -3.3617,-23.3235 -4.9576,-34.9976 -1.2187,-9.1064 -2.3806,-18.2205 -3.5356,-27.3352 -0.745,-5.9376 -1.4041,-11.901 -2.9263,-17.699 -0.8583,-2.7233 -1.851,-4.8562 -4.6099,-5.8961 -2.8171,-0.4878 -5.3628,0.9958 -7.73,2.3272 -4.1615,2.4951 -8.0011,5.4709 -11.7952,8.4822 -5.442,4.3898 -10.6969,9.004 -16.0168,13.5392 -6.1587,5.3221 -12.4002,10.5466 -18.6825,15.722 -6.0514,4.9773 -12.2285,9.7985 -18.3862,14.643 -5.6105,4.3735 -11.1897,8.7877 -16.6744,13.3185 -5.0632,4.2078 -9.9434,8.6274 -14.7899,13.0811 -3.8302,3.5169 -7.6516,7.0512 -11.7883,10.2085 -0.7332,0.4938 -4.4419,3.5088 -5.152,1.3695 -0.1164,-0.3497 -0.035,-0.7361 -0.053,-1.1043 0.1,-0.548 0.1591,-1.105 0.299,-1.6442 0.7261,-2.7951 2.0132,-5.452 3.235,-8.0516 1.5007,-3.1928 2.2113,-4.5626 3.8307,-7.8034 6.0053,-11.864 12.4325,-23.5078 18.9002,-35.1242 8.5782,-15.1595 17.2525,-30.2646 25.9303,-45.3672 9.3085,-16.2509 18.6429,-32.4866 27.9909,-48.7145 9.1132,-15.8905 18.4295,-31.6626 27.7719,-47.4191 8.0053,-13.4338 16.0355,-26.8529 24.0495,-40.2816 4.2693,-7.1342 8.4824,-14.3019 12.6894,-21.4729 0.219,-0.3592 5.2953,2.7429 5.0761,3.102 l 0,0 c -3.8212,7.4317 -7.6664,14.8512 -11.6016,22.2235 -7.4001,13.8314 -14.8795,27.6203 -22.5752,41.2899 -9.0011,15.9615 -18.063,31.888 -27.1971,47.7737 -9.3679,16.2257 -18.7629,32.4362 -28.2905,48.5692 -8.8716,14.9892 -17.8269,29.9304 -27.0689,44.6953 -7.0607,11.2063 -14.166,22.388 -21.6785,33.2991 -3.4643,5.0779 -6.9279,10.1559 -10.4575,15.1883 -0.015,0.027 -0.5145,0.8692 -0.458,0.8613 0.8462,-0.1244 2.6223,-2.575 3.3395,-2.9882 3.6729,-3.6353 7.3205,-7.2957 10.9845,-10.9397 4.7547,-4.6402 9.6,-9.1875 14.6881,-13.464 5.4608,-4.5889 11.0065,-9.0725 16.5407,-13.5726 6.0598,-4.935 12.0913,-9.9044 18.0956,-14.907 6.2661,-5.191 12.5388,-10.3743 18.8629,-15.4946 5.4769,-4.437 10.9695,-8.8684 16.746,-12.9136 4.0957,-2.8004 8.2276,-5.5973 12.7148,-7.7424 2.7999,-1.2208 5.7184,-2.4296 8.8332,-1.8736 3.5849,1.1296 5.143,3.4693 6.7411,6.7452 2.33,5.7945 3.6873,11.8846 4.8019,18.0193 1.6865,9.0963 3.2321,18.2179 4.876,27.3219 2.0897,11.6591 4.2196,23.311 6.2186,34.9861 2.3127,13.5635 4.6454,27.1239 6.8314,40.7086 2.161,13.4443 4.2354,26.902 6.3062,40.3604 1.7452,11.2306 3.4882,22.462 5.419,33.6624 1.1968,6.9863 2.3362,13.996 4.0665,20.875 0.5934,2.0704 0.3671,1.4792 1.0606,3.2544 0.3659,0.9367 0.9898,1.8524 1.5777,0.4493 1.3429,-4.5817 1.1421,-9.4686 1.5222,-14.1836 0.366,-9.4597 0.6449,-18.9223 0.8045,-28.3876 0.2141,-12.4722 0.3543,-24.9452 0.4376,-37.4191 0.086,-14.3063 0.2092,-28.6131 0.5406,-42.9164 0.3792,-14.2195 0.8481,-28.4385 1.7104,-42.6384 0.7036,-11.3958 1.5079,-22.7868 2.6252,-34.1506 0.8829,-8.536 1.8396,-17.0689 3.265,-25.5345 1.1515,-6.4878 2.3815,-12.9893 4.5174,-19.2391 1.4877,-4.0996 3.0873,-8.2726 6.0887,-11.5323 2.1481,-1.9534 4.0201,-3.0031 6.9221,-1.9091 3.325,1.8077 5.6115,4.8605 7.6602,7.9713 3.0798,4.966 5.8396,10.1145 8.453,15.3402 3.3232,6.5896 6.6069,13.1989 9.9196,19.7938 3.5311,6.949 7.0381,13.912 10.7863,20.7477 3.843,6.9818 7.7359,13.9365 11.775,20.8071 4.1508,7.0314 8.3624,14.0278 12.8134,20.8747 4.1169,6.3025 8.3687,12.5213 13.0204,18.4452 3.6407,4.5777 7.3629,9.1236 11.6417,13.1276 3.0298,2.7736 6.1588,5.5385 9.9006,7.3184 1.7301,0.6866 4.0076,1.6327 5.3568,-0.1902 0.9102,-2.5653 -0.4795,-5.1486 -1.553,-7.4529 -2.5095,-4.6368 -5.4441,-9.0073 -8.4524,-13.3336 -3.9965,-5.9138 -7.9506,-11.857 -11.7375,-17.908 -4.4228,-7.0824 -8.7611,-14.2192 -12.8366,-21.5085 -4.1431,-7.4512 -8.1736,-14.963 -12.0953,-22.5333 -3.947,-7.7182 -7.8529,-15.4601 -11.4003,-23.3722 -3.7868,-8.5301 -7.3864,-17.1442 -10.5763,-25.918 -3.3927,-9.3918 -6.6028,-18.8553 -9.1989,-28.5032 -2.5387,-9.7618 -4.7757,-19.606 -6.2417,-29.5931 -1.3743,-9.4936 -2.4623,-19.0322 -2.6831,-28.6321 -0.1876,-8.443 -0.091,-16.8904 0.4739,-25.3196 0.4585,-6.8921 -0.5026,6 0.2234,-0.8706 0.4746,-4.4761 1.0149,-8.9439 1.645,-13.401 0.2113,-1.6737 0.5053,-3.3719 0.4211,-5.0625 2e-4,-0.034 0.4851,-0.01 0.4835,0.022 z"
         id="path4074"
         style="fill:#000000;fill-opacity:1;fill-rule:evenodd;stroke:#000000;stroke-width:7.03041124;stroke-miterlimit:4;stroke-opacity:1;stroke-dasharray:none"
         inkscape:transform-center-x="28.451646"
         sodipodi:nodetypes="ccccccccccccccccccccccccccccccccccccccccccccccccccccccccscccccccccccccccccccccccccccccccccccccccccccccccccccccccccccccccccccccccc" />
    </g>
  </g>
</svg>
